<svg xmlns="http://www.w3.org/2000/svg" viewBox="0 0 36 36">
  <defs>
    <linearGradient id="g" x1="0" y1="0" x2="0" y2="1">
      <stop offset="0%" stop-color="#DF98FA" />
      <stop offset="100%" stop-color="#9055FF" />
    </linearGradient>
  </defs>
  <path fill="url(#g)" d="M 31.078 12.622 L 31.078 5.977 C 31.078 5.394 30.606 4.922 30.023 4.922 L 23.378 4.922 L 18.744 0.307 C 18.333 -0.102 17.667 -0.102 17.256 0.307 L 12.622 4.922 L 5.977 4.922 C 5.394 4.922 4.922 5.394 4.922 5.977 L 4.922 12.622 L 0.307 17.256 C -0.102 17.667 -0.102 18.333 0.307 18.744 L 4.922 23.378 L 4.922 30.023 C 4.922 30.606 5.394 31.078 5.977 31.078 L 12.622 31.078 L 17.256 35.693 C 17.462 35.898 17.731 36 18 36 C 18.269 36 18.538 35.898 18.744 35.693 L 23.378 31.078 L 30.023 31.078 C 30.606 31.078 31.078 30.606 31.078 30.023 L 31.078 23.378 L 35.693 18.744 C 36.102 18.333 36.102 17.667 35.693 17.256 L 31.078 12.622 Z M 29.276 22.198 C 29.079 22.396 28.969 22.664 28.969 22.942 L 28.969 28.969 L 22.943 28.969 C 22.664 28.969 22.396 29.079 22.198 29.276 L 18 33.457 L 13.802 29.276 C 13.604 29.079 13.336 28.969 13.058 28.969 L 7.031 28.969 L 7.031 22.943 C 7.031 22.664 6.921 22.396 6.724 22.198 L 2.543 18 L 6.724 13.802 C 6.921 13.604 7.031 13.336 7.031 13.058 L 7.031 7.031 L 13.057 7.031 C 13.336 7.031 13.604 6.921 13.802 6.724 L 18 2.543 L 22.198 6.724 C 22.396 6.921 22.664 7.031 22.943 7.031 L 28.969 7.031 L 28.969 13.057 C 28.969 13.336 29.079 13.604 29.276 13.802 L 33.457 18 L 29.276 22.198 Z" />
  <circle cx="18" cy="18" r="4" fill="url(#g)" />
</svg>
